<svg xmlns="http://www.w3.org/2000/svg" version="1.1" xmlns:xlink="http://www.w3.org/1999/xlink" width="512" height="512" x="0" y="0" viewBox="0 0 497 497" style="enable-background:new 0 0 512 512" xml:space="preserve" class=""><g><path fill="#eef5f6" d="m337.335 496-30.004 1H96.448c-8.284 0-15-6.716-15-15v-28.933h269.886V482c.001 8.284-5.715 14-13.999 14z" opacity="1" data-original="#eef5f6" class=""></path><path fill="#deecf1" d="M352.33 453.07V482c0 8.28-6.71 15-15 15h-30c8.29 0 15-6.72 15-15v-28.93zM389.734 222.687h-86.636v207.31h86.636c33.137 0 60-26.863 60-60v-87.31c0-33.137-26.863-60-60-60zm27.841 140.525c0 16.569-13.432 30-30 30h-64.598v-133.74h64.598c16.568 0 30 13.432 30 30z" opacity="1" data-original="#deecf1" class=""></path><path fill="#ffe177" d="M351.332 162.377v295.784H81.449V162.377c0-3.088 2.81-5.441 5.848-4.885 16.918 3.078 18.864 19.35 39.296 19.35 22.577 0 22.577-19.857 45.144-19.857 22.577 0 22.577 19.857 45.144 19.857 22.577 0 22.577-19.857 45.154-19.857s22.577 19.857 45.144 19.857c20.432 0 22.378-16.273 39.306-19.36 3.038-.546 4.847 1.807 4.847 4.895z" opacity="1" data-original="#ffe177" class=""></path><path fill="#ffc344" d="M352.33 162.38v295.78h-30V172.73c8.1-5.03 12.7-13.16 24.15-15.25 3.04-.54 5.85 1.81 5.85 4.9z" opacity="1" data-original="#ffc344" class=""></path><path fill="#eef5f6" d="M385.515 137.993c0 25.555-12.711 47.904-33.183 60.096v-35.712c0-3.088-2.81-5.441-5.848-4.895-16.928 3.088-18.874 19.36-39.306 19.36-22.567 0-22.567-19.857-45.144-19.857s-22.577 19.857-45.154 19.857c-22.567 0-22.567-19.857-45.144-19.857-22.567 0-22.567 19.857-45.144 19.857h-.08c-3.877-.004-7.049 3.164-7.049 7.041v85.081c0 16.89-13.823 31.112-30.71 30.784-16.364-.318-29.525-13.676-29.525-30.107v-89.867c0-.592-.181-1.166-.512-1.657-7.233-10.736-11.452-23.672-11.452-37.594 0-36.434 28.909-66.113 65.04-67.353a2.927 2.927 0 0 0 2.761-2.322c2.025-9.527 13.022-45.58 63.351-44.252 6.342.169 12.469.687 18.275 2.23a2.94 2.94 0 0 0 3.19-1.184c8.422-12.503 21.229-21.801 36.223-25.669C241.105.686 246.346 1 251.749 1c34.511 0 61.489 26.978 61.489 61.489 0 1.038-.029 2.07-.083 3.097-.072 1.372 2.033 3.494 3.407 3.493h.03c38.62-.001 68.923 30.303 68.923 68.914z" opacity="1" data-original="#eef5f6" class=""></path><path fill="#ffc344" d="M263.871 399.817c-8.773 0-15.885-7.112-15.885-15.885V231.215c0-8.773 7.112-15.885 15.885-15.885s15.885 7.112 15.885 15.885v152.717c0 8.773-7.112 15.885-15.885 15.885zM169.868 399.817c-8.773 0-15.885-7.112-15.885-15.885V231.215c0-8.773 7.112-15.885 15.885-15.885s15.885 7.112 15.885 15.885v152.717c0 8.773-7.112 15.885-15.885 15.885z" opacity="1" data-original="#ffc344" class=""></path><path fill="#eef5f6" d="M89.115 398.817c-5.468 0-10.593-.469-15.003-3.033-8.9-5.176-14.883-14.815-14.883-25.852v-8.996c0-11.04 5.986-20.682 14.89-25.857 4.408-2.562 9.53-3.029 14.995-3.029 16.505 0 28.885 12.38 28.885 28.885v8.996c.001 16.506-12.379 28.886-28.884 28.886z" opacity="1" data-original="#eef5f6" class=""></path><g fill="#deecf1"><path d="M386.52 137.99c0 25.56-13.72 47.91-34.19 60.1v-35.71c0-.15-.01-.29-.03-.44a69.651 69.651 0 0 0 4.22-23.95c0-38.61-31.31-69.91-69.93-69.91h-.027c-1.374.001-2.48-1.122-2.407-2.494.055-1.028.084-2.06.084-3.096 0-29.34-20.23-53.96-47.5-60.67C241.55.63 246.57 0 251.75 0c34.51 0 62.49 27.98 62.49 62.49 0 1.035-.03 2.068-.084 3.096-.073 1.372 1.033 2.495 2.407 2.494h.027c38.62 0 69.93 31.3 69.93 69.91zM119 360.94v8.99c0 16.51-13.38 29.89-29.89 29.89-5.46 0-10.58-1.46-14.99-4.03 8.9-5.18 14.88-14.82 14.88-25.86v-8.99c0-8.26-3.34-15.73-8.75-21.14a29.667 29.667 0 0 0-6.13-4.71c4.41-2.57 9.53-4.04 14.99-4.04 8.25 0 15.73 3.35 21.14 8.75a29.79 29.79 0 0 1 8.75 21.14z" fill="#deecf1" opacity="1" data-original="#deecf1" class=""></path></g></g></svg>
